<svg xmlns="http://www.w3.org/2000/svg" width="24" height="24" stroke-width="1.5" stroke="#808080" fill="none" stroke-linejoin="round" stroke-linecap="round" viewBox="0 0 24 24"> <g fill="none" fill-rule="evenodd"><rect width="24" height="24" style="stroke:rgba(0,0,0,0)"></rect><path d="M12,2 C17.5228475,2 22,6.4771525 22,12 C22,17.5228475 17.5228475,22 12,22 L12,22 C14.5012804,19.2616471 15.9227528,15.7079661 16,12 C15.9227528,8.29203385 14.5012804,4.73835289 12,2 L12,2 Z M12,2 C9.49871962,4.73835289 8.07724724,8.29203385 8,12 C8.07724724,15.7079661 9.49871962,19.2616471 12,22 L12,22 L11.7200952,21.9961582 C6.32667079,21.8479317 2,17.4292399 2,12 C2,6.4771525 6.4771525,2 12,2 Z M2,12 L22,12" stroke="#808080"></path></g></svg>